# xmcd CD database file
#
# Track frame offsets:
#	150
#	19862
#	41779
#	53674
#	68082
#	96286
#	109122
#	124645
#	140256
#	174982
#	192736
#	219498
#
# Disc length: 3233 seconds
#
# Revision: 0
# Processed by: cddbd v1.5.2PL0 Copyright (c) Steve Scherf et al.
# Submitted via: CDex 1.51
#
DISCID=aa0c9f0c
DTITLE=Blues Himmel - scheenie welt
DYEAR=2004
DGENRE=Blues
TTITLE0=Grumbeersupp
TTITLE1=Buhmann Blues
TTITLE2=Scheenie Welt
TTITLE3=Jeede Daa
TTITLE4=Die Zeit
TTITLE5=Setzer setzen Sex
TTITLE6=Geb Gas
TTITLE7=Anno Tuwak
TTITLE8=Rosen und Meer
TTITLE9=Zeit zum Lache
TTITLE10=Michel im Schbichel
TTITLE11=Fanky Zeich
EXTD=YEAR: 2004
EXTT0=
EXTT1=
EXTT2=
EXTT3=
EXTT4=
EXTT5=
EXTT6=
EXTT7=
EXTT8=
EXTT9=
EXTT10=
EXTT11=
PLAYORDER=
